<svg xmlns="http://www.w3.org/2000/svg" viewBox="0 0 212 212" width="212" height="212" class="segno"><title>F-Droid add-repo QR code</title><g transform="scale(4)"><path fill="#fff" d="M0 0h53v53h-53z"/><path class="qrline" stroke="#1a1726" d="M4 4.5h7m2 0h3m2 0h2m2 0h2m1 0h1m3 0h1m3 0h2m1 0h1m3 0h1m1 0h7m-45 1h1m5 0h1m5 0h1m2 0h2m1 0h1m1 0h1m3 0h1m2 0h3m1 0h1m3 0h1m2 0h1m5 0h1m-45 1h1m1 0h3m1 0h1m1 0h1m2 0h1m2 0h4m1 0h1m1 0h1m6 0h1m1 0h1m2 0h1m1 0h1m2 0h1m1 0h3m1 0h1m-45 1h1m1 0h3m1 0h1m1 0h3m2 0h1m1 0h1m2 0h1m1 0h1m1 0h1m4 0h1m3 0h1m1 0h1m1 0h2m1 0h1m1 0h3m1 0h1m-45 1h1m1 0h3m1 0h1m1 0h1m1 0h1m1 0h1m2 0h1m1 0h1m1 0h6m2 0h4m3 0h3m1 0h1m1 0h3m1 0h1m-45 1h1m5 0h1m1 0h1m2 0h1m5 0h1m2 0h1m3 0h4m3 0h1m6 0h1m5 0h1m-45 1h7m1 0h1m1 0h1m1 0h1m1 0h1m1 0h1m1 0h1m1 0h1m1 0h1m1 0h1m1 0h1m1 0h1m1 0h1m1 0h1m1 0h1m1 0h1m1 0h7m-37 1h4m3 0h2m3 0h1m3 0h7m2 0h1m2 0h1m-37 1h1m1 0h5m2 0h7m1 0h1m1 0h6m1 0h1m2 0h3m3 0h1m2 0h5m-43 1h1m1 0h1m1 0h1m2 0h2m2 0h2m2 0h2m1 0h1m4 0h2m5 0h2m4 0h1m3 0h2m1 0h2m-44 1h2m1 0h1m1 0h2m1 0h4m3 0h2m1 0h1m4 0h1m1 0h4m2 0h1m1 0h1m1 0h4m1 0h1m1 0h1m-39 1h1m1 0h4m2 0h2m2 0h1m3 0h1m1 0h2m3 0h1m1 0h3m1 0h1m1 0h4m1 0h2m-42 1h1m1 0h1m1 0h3m3 0h4m1 0h4m2 0h1m1 0h4m1 0h1m1 0h1m1 0h2m2 0h2m2 0h1m2 0h1m-44 1h1m3 0h1m1 0h1m1 0h2m1 0h2m1 0h2m5 0h2m6 0h1m4 0h2m3 0h1m1 0h3m-44 1h1m4 0h1m3 0h1m1 0h3m1 0h1m1 0h1m2 0h2m1 0h4m1 0h1m3 0h6m3 0h1m-43 1h2m3 0h1m1 0h1m1 0h1m4 0h1m1 0h4m2 0h1m1 0h2m2 0h1m1 0h3m5 0h1m1 0h1m1 0h2m-42 1h2m1 0h3m1 0h4m1 0h2m1 0h3m1 0h1m5 0h1m2 0h2m7 0h1m1 0h1m1 0h1m-41 1h1m1 0h1m1 0h1m1 0h1m1 0h1m1 0h1m1 0h1m2 0h1m1 0h1m1 0h2m3 0h4m1 0h2m1 0h2m2 0h2m2 0h2m-45 1h3m3 0h1m1 0h1m1 0h2m3 0h6m1 0h1m1 0h3m4 0h2m1 0h2m1 0h3m1 0h2m-43 1h1m1 0h2m3 0h1m3 0h1m2 0h3m1 0h1m4 0h1m1 0h1m2 0h1m6 0h1m3 0h2m1 0h1m1 0h1m-44 1h2m1 0h6m1 0h4m3 0h8m1 0h1m1 0h3m2 0h1m1 0h6m-41 1h2m1 0h1m3 0h3m2 0h3m1 0h1m1 0h2m3 0h1m4 0h3m1 0h1m2 0h1m3 0h3m1 0h1m-45 1h1m2 0h2m1 0h1m1 0h1m3 0h1m2 0h1m2 0h3m1 0h1m1 0h1m3 0h1m5 0h3m1 0h1m1 0h1m1 0h1m-43 1h1m1 0h3m3 0h3m2 0h2m2 0h2m1 0h1m3 0h10m2 0h1m3 0h3m-41 1h7m1 0h1m2 0h1m1 0h2m1 0h7m1 0h1m2 0h2m2 0h1m2 0h6m1 0h1m-44 1h4m1 0h1m4 0h3m1 0h1m2 0h9m1 0h1m2 0h2m3 0h4m3 0h1m1 0h1m-42 1h1m1 0h2m5 0h3m2 0h1m3 0h1m1 0h1m1 0h2m1 0h2m2 0h1m1 0h1m2 0h1m1 0h1m3 0h1m-44 1h1m9 0h2m2 0h3m3 0h2m1 0h3m2 0h1m1 0h3m2 0h2m2 0h1m1 0h3m-43 1h2m3 0h1m1 0h5m1 0h1m1 0h1m1 0h1m4 0h5m2 0h2m2 0h1m1 0h1m1 0h1m1 0h1m-40 1h2m2 0h1m2 0h1m1 0h5m1 0h3m1 0h2m7 0h2m1 0h1m2 0h1m2 0h1m-38 1h2m1 0h1m1 0h1m1 0h1m1 0h1m2 0h1m1 0h5m4 0h5m1 0h1m2 0h2m1 0h1m2 0h1m1 0h3m-44 1h1m4 0h1m3 0h1m2 0h1m3 0h1m1 0h3m2 0h1m3 0h1m2 0h1m1 0h2m1 0h1m2 0h2m1 0h2m-42 1h2m1 0h4m3 0h1m2 0h2m2 0h4m3 0h2m2 0h2m3 0h1m1 0h3m1 0h1m1 0h2m-43 1h1m1 0h1m4 0h8m1 0h3m2 0h2m4 0h5m2 0h1m1 0h3m2 0h1m-39 1h1m1 0h1m3 0h3m2 0h2m4 0h1m1 0h1m1 0h3m1 0h1m3 0h1m2 0h2m1 0h2m1 0h2m-43 1h4m2 0h3m2 0h1m3 0h4m4 0h1m3 0h2m1 0h6m1 0h2m2 0h3m-45 1h1m2 0h2m1 0h1m1 0h2m1 0h1m1 0h2m3 0h1m1 0h5m2 0h1m8 0h6m-34 1h1m3 0h1m6 0h2m3 0h1m2 0h1m1 0h2m1 0h1m2 0h2m3 0h3m1 0h1m-45 1h7m3 0h3m1 0h3m1 0h3m1 0h1m1 0h1m4 0h1m3 0h1m1 0h2m1 0h1m1 0h1m1 0h2m-44 1h1m5 0h1m1 0h1m1 0h2m4 0h1m3 0h1m3 0h1m1 0h3m1 0h4m1 0h2m3 0h4m-44 1h1m1 0h3m1 0h1m1 0h3m5 0h1m1 0h1m1 0h5m4 0h1m3 0h1m1 0h7m2 0h1m-45 1h1m1 0h3m1 0h1m1 0h2m5 0h1m3 0h1m1 0h1m3 0h1m1 0h2m1 0h2m4 0h2m2 0h5m-45 1h1m1 0h3m1 0h1m1 0h1m1 0h1m1 0h3m8 0h4m2 0h1m1 0h1m2 0h6m1 0h3m-44 1h1m5 0h1m3 0h1m1 0h3m5 0h1m2 0h1m4 0h1m1 0h3m3 0h2m1 0h4m-43 1h7m1 0h2m1 0h2m1 0h6m1 0h2m1 0h4m1 0h1m1 0h1m3 0h2m4 0h1m1 0h1"/></g></svg>
